<?xml version="1.0" encoding="utf-8"?>
<!-- Generator: Adobe Illustrator 23.0.3, SVG Export Plug-In . SVG Version: 6.00 Build 0)  -->
<svg version="1.1" id="Laag_1" xmlns="http://www.w3.org/2000/svg" xmlns:xlink="http://www.w3.org/1999/xlink" x="0px" y="0px"
	 viewBox="0 0 708.66 536.4" style="enable-background:new 0 0 708.66 536.4;" xml:space="preserve">
<style type="text/css">
	.st0{fill:#1E3142;}
	.st1{fill:#A1CCC5;}
	.st2{fill:#F4D24A;}
	.st3{fill:#3FA3A8;}
	.st4{fill:#B4B4B3;}
</style>
<g>
	<path class="st0" d="M582.05,340.1h-51.95l-9.65,23.87h-35.46l54.24-122.87h34.23l54.41,122.87H591.7L582.05,340.1z M571.87,314.47
		l-15.8-39.32l-15.8,39.32H571.87z"/>
	<path class="st0" d="M384.64,362.74c-9.36-2.46-16.97-5.73-22.82-9.83l11.41-25.63c5.5,3.62,11.87,6.55,19.13,8.78
		c7.25,2.22,14.39,3.33,21.41,3.33c13.34,0,20.01-3.33,20.01-10.01c0-3.51-1.9-6.11-5.7-7.81c-3.81-1.69-9.92-3.48-18.34-5.35
		c-9.25-1.99-16.97-4.12-23.17-6.4c-6.21-2.28-11.53-5.94-15.97-10.97c-4.45-5.03-6.67-11.82-6.67-20.37
		c0-7.49,2.05-14.25,6.14-20.27c4.09-6.03,10.21-10.8,18.35-14.31c8.13-3.51,18.1-5.27,29.93-5.27c8.07,0,16.03,0.91,23.87,2.72
		c7.83,1.81,14.74,4.48,20.71,7.99l-10.71,25.8c-11.7-6.32-23.06-9.48-34.05-9.48c-6.91,0-11.94,1.03-15.09,3.07
		c-3.16,2.05-4.74,4.71-4.74,7.99c0,3.28,1.87,5.73,5.62,7.37c3.74,1.64,9.77,3.33,18.08,5.09c9.36,1.99,17.11,4.12,23.26,6.4
		c6.14,2.28,11.46,5.91,15.97,10.88c4.5,4.98,6.76,11.73,6.76,20.27c0,7.38-2.05,14.05-6.15,20.01
		c-4.1,5.97-10.24,10.74-18.43,14.31c-8.19,3.57-18.14,5.35-29.84,5.35C403.66,366.43,394.01,365.2,384.64,362.74z"/>
	<path class="st0" d="M448.45,198.76l-0.35-65.12l-31.6,53.01h-15.45l-31.42-51.25v63.37h-32.12V75.89h28.61l43.18,70.91
		l42.12-70.91h28.61l0.35,122.87H448.45z"/>
	<path class="st0" d="M314.55,159.62H245.4c1.4,4.92,4.12,8.69,8.16,11.32c4.03,2.63,9.1,3.95,15.18,3.95
		c4.56,0,8.52-0.64,11.85-1.93c3.34-1.29,6.7-3.39,10.09-6.32l17.55,18.26c-9.25,10.3-22.76,15.45-40.55,15.45
		c-11.12,0-20.89-2.11-29.31-6.32s-14.95-10.06-19.57-17.55s-6.93-15.97-6.93-25.45c0-9.36,2.25-17.76,6.76-25.19
		c4.5-7.43,10.73-13.25,18.69-17.46c7.96-4.21,16.91-6.32,26.86-6.32c9.48,0,18.08,1.96,25.8,5.88c7.72,3.92,13.83,9.6,18.34,17.03
		c4.5,7.43,6.76,16.24,6.76,26.42C315.08,151.61,314.91,154.36,314.55,159.62z M251.45,130.13c-3.45,2.93-5.65,6.9-6.58,11.94h38.97
		c-0.94-5.03-3.13-9.01-6.58-11.94c-3.45-2.92-7.75-4.39-12.9-4.39C259.2,125.74,254.9,127.21,251.45,130.13z"/>
	<path class="st0" d="M188.16,146.19c3.98,5.21,5.97,11.5,5.97,18.87c0,10.77-4.33,19.08-12.99,24.92
		c-8.66,5.85-21.18,8.78-37.56,8.78H77.22V75.89h62.84c15.68,0,27.62,2.9,35.81,8.69c8.19,5.79,12.29,13.6,12.29,23.43
		c0,5.85-1.43,11.09-4.3,15.71c-2.87,4.63-6.93,8.28-12.2,10.97C178.68,137.15,184.18,140.99,188.16,146.19z M111.63,100.99v23.7
		h23.87c11.7,0,17.55-3.98,17.55-11.94c0-7.84-5.85-11.76-17.55-11.76H111.63z M159.02,161.2c0-8.31-6.09-12.46-18.26-12.46h-29.14
		v24.93h29.14C152.93,173.66,159.02,169.51,159.02,161.2z"/>
	<circle class="st1" cx="129.29" cy="297.98" r="31.54"/>
	<circle class="st2" cx="265.75" cy="297.98" r="31.54"/>
	<circle class="st3" cx="557.87" cy="146.34" r="31.54"/>
	<g>
		<path class="st4" d="M473.13,430.01h10.19v23.12c-2.98,2.38-6.46,4.2-10.44,5.47c-3.98,1.27-8.07,1.91-12.27,1.91
			c-5.91,0-11.25-1.28-16-3.85c-4.75-2.57-8.48-6.12-11.19-10.65c-2.71-4.53-4.06-9.64-4.06-15.33s1.35-10.8,4.06-15.33
			c2.71-4.53,6.45-8.08,11.23-10.65c4.78-2.57,10.15-3.85,16.12-3.85c4.86,0,9.28,0.8,13.26,2.4c3.98,1.6,7.32,3.95,10.03,7.04
			l-6.8,6.63c-4.42-4.42-9.75-6.63-16-6.63c-4.09,0-7.72,0.86-10.9,2.57c-3.18,1.71-5.66,4.12-7.46,7.21
			c-1.8,3.09-2.69,6.63-2.69,10.61c0,3.87,0.9,7.35,2.69,10.44c1.79,3.1,4.28,5.53,7.46,7.29c3.18,1.77,6.78,2.65,10.82,2.65
			c4.53,0,8.51-0.99,11.93-2.98V430.01z"/>
		<path class="st4" d="M537.95,440.87h-34.73c0.61,3.26,2.2,5.84,4.77,7.75c2.57,1.91,5.76,2.86,9.57,2.86
			c4.86,0,8.87-1.6,12.02-4.81l5.55,6.38c-1.99,2.38-4.5,4.17-7.54,5.39c-3.04,1.22-6.46,1.82-10.28,1.82
			c-4.86,0-9.15-0.97-12.85-2.9c-3.7-1.93-6.56-4.63-8.58-8.08c-2.02-3.45-3.03-7.36-3.03-11.73c0-4.31,0.98-8.19,2.94-11.64
			c1.96-3.45,4.68-6.15,8.16-8.08c3.48-1.93,7.4-2.9,11.77-2.9c4.31,0,8.16,0.95,11.56,2.86c3.4,1.91,6.05,4.59,7.96,8.04
			s2.86,7.45,2.86,11.98C538.11,438.52,538.06,439.54,537.95,440.87z M507.32,426.15c-2.29,1.96-3.69,4.57-4.19,7.83h25.11
			c-0.44-3.21-1.8-5.8-4.06-7.79s-5.08-2.98-8.45-2.98C512.42,423.21,509.61,424.19,507.32,426.15z"/>
		<path class="st4" d="M586.6,419.81c3.37,3.26,5.06,8.1,5.06,14.5v25.36h-10.36v-24.04c0-3.87-0.91-6.78-2.73-8.74
			c-1.82-1.96-4.42-2.94-7.79-2.94c-3.81,0-6.82,1.15-9.03,3.44c-2.21,2.29-3.32,5.59-3.32,9.9v22.38h-10.36v-44.26h9.86v5.72
			c1.71-2.04,3.87-3.59,6.46-4.64c2.6-1.05,5.52-1.57,8.79-1.57C578.75,414.92,583.23,416.55,586.6,419.81z"/>
		<path class="st4" d="M631.44,457.28c-1.22,0.99-2.69,1.74-4.43,2.24c-1.74,0.5-3.58,0.75-5.51,0.75c-4.86,0-8.62-1.27-11.27-3.81
			s-3.98-6.24-3.98-11.11v-21.3h-7.29v-8.29h7.29v-10.11h10.36v10.11h11.85v8.29H616.6v21.05c0,2.15,0.52,3.8,1.57,4.93
			c1.05,1.13,2.57,1.7,4.56,1.7c2.32,0,4.25-0.61,5.8-1.82L631.44,457.28z"/>
	</g>
</g>
</svg>
