<?xml version="1.0" encoding="utf-8"?>
<!-- Generator: Adobe Illustrator 23.0.3, SVG Export Plug-In . SVG Version: 6.00 Build 0)  -->
<svg version="1.1" id="Laag_1" xmlns="http://www.w3.org/2000/svg" xmlns:xlink="http://www.w3.org/1999/xlink" x="0px" y="0px"
	 viewBox="0 0 708.66 536.4" style="enable-background:new 0 0 708.66 536.4;" xml:space="preserve">
<style type="text/css">
	.st0{fill:#194052;}
	.st1{fill:#98C6BB;}
	.st2{fill:#F3CC23;}
	.st3{fill:#4CADA9;}
	.st4{fill:#B5B5B3;}
</style>
<g>
	<path class="st0" d="M582.05,340.1h-51.95l-9.65,23.87h-35.46l54.24-122.87h34.23l54.41,122.87H591.7L582.05,340.1z M571.87,314.47
		l-15.8-39.32l-15.8,39.32H571.87z"/>
	<path class="st0" d="M384.64,362.74c-9.36-2.46-16.97-5.73-22.82-9.83l11.41-25.63c5.5,3.62,11.87,6.55,19.13,8.78
		c7.25,2.22,14.39,3.33,21.41,3.33c13.34,0,20.01-3.33,20.01-10.01c0-3.51-1.9-6.11-5.7-7.81c-3.81-1.69-9.92-3.48-18.34-5.35
		c-9.25-1.99-16.97-4.12-23.17-6.4c-6.21-2.28-11.53-5.94-15.97-10.97c-4.45-5.03-6.67-11.82-6.67-20.37
		c0-7.49,2.05-14.25,6.14-20.27c4.09-6.03,10.21-10.8,18.35-14.31c8.13-3.51,18.1-5.27,29.93-5.27c8.07,0,16.03,0.91,23.87,2.72
		c7.83,1.81,14.74,4.48,20.71,7.99l-10.71,25.8c-11.7-6.32-23.06-9.48-34.05-9.48c-6.91,0-11.94,1.03-15.09,3.07
		c-3.16,2.05-4.74,4.71-4.74,7.99c0,3.28,1.87,5.73,5.62,7.37c3.74,1.64,9.77,3.33,18.08,5.09c9.36,1.99,17.11,4.12,23.26,6.4
		c6.14,2.28,11.46,5.91,15.97,10.88c4.5,4.98,6.76,11.73,6.76,20.27c0,7.38-2.05,14.05-6.15,20.01
		c-4.1,5.97-10.24,10.74-18.43,14.31c-8.19,3.57-18.14,5.35-29.84,5.35C403.66,366.43,394.01,365.2,384.64,362.74z"/>
	<path class="st0" d="M448.45,198.76l-0.35-65.12l-31.6,53.01h-15.45l-31.42-51.25v63.37h-32.12V75.89h28.61l43.18,70.91
		l42.12-70.91h28.61l0.35,122.87H448.45z"/>
	<path class="st0" d="M314.55,159.62H245.4c1.4,4.92,4.12,8.69,8.16,11.32c4.03,2.63,9.1,3.95,15.18,3.95
		c4.56,0,8.52-0.64,11.85-1.93c3.34-1.29,6.7-3.39,10.09-6.32l17.55,18.26c-9.25,10.3-22.76,15.45-40.55,15.45
		c-11.12,0-20.89-2.11-29.31-6.32s-14.95-10.06-19.57-17.55s-6.93-15.97-6.93-25.45c0-9.36,2.25-17.76,6.76-25.19
		c4.5-7.43,10.73-13.25,18.69-17.46c7.96-4.21,16.91-6.32,26.86-6.32c9.48,0,18.08,1.96,25.8,5.88c7.72,3.92,13.83,9.6,18.34,17.03
		c4.5,7.43,6.76,16.24,6.76,26.42C315.08,151.61,314.91,154.36,314.55,159.62z M251.45,130.13c-3.45,2.93-5.65,6.9-6.58,11.94h38.97
		c-0.94-5.03-3.13-9.01-6.58-11.94c-3.45-2.92-7.75-4.39-12.9-4.39C259.2,125.74,254.9,127.21,251.45,130.13z"/>
	<path class="st0" d="M188.16,146.19c3.98,5.21,5.97,11.5,5.97,18.87c0,10.77-4.33,19.08-12.99,24.92
		c-8.66,5.85-21.18,8.78-37.56,8.78H77.22V75.89h62.84c15.68,0,27.62,2.9,35.81,8.69c8.19,5.79,12.29,13.6,12.29,23.43
		c0,5.85-1.43,11.09-4.3,15.71c-2.87,4.63-6.93,8.28-12.2,10.97C178.68,137.15,184.18,140.99,188.16,146.19z M111.63,100.99v23.7
		h23.87c11.7,0,17.55-3.98,17.55-11.94c0-7.84-5.85-11.76-17.55-11.76H111.63z M159.02,161.2c0-8.31-6.09-12.46-18.26-12.46h-29.14
		v24.93h29.14C152.93,173.66,159.02,169.51,159.02,161.2z"/>
	<circle class="st1" cx="129.29" cy="297.98" r="31.54"/>
	<circle class="st2" cx="265.75" cy="297.98" r="31.54"/>
	<circle class="st3" cx="557.87" cy="146.34" r="31.54"/>
	<g>
		<path class="st4" d="M345.66,453.7c-4.48-4.51-6.72-10.97-6.72-19.38v-32.78h10.79v32.37c0,11.4,4.92,17.1,14.77,17.1
			c9.79,0,14.69-5.7,14.69-17.1v-32.37h10.62v32.78c0,8.41-2.23,14.87-6.68,19.38c-4.46,4.51-10.69,6.76-18.72,6.76
			C356.39,460.46,350.14,458.21,345.66,453.7z"/>
		<path class="st4" d="M404.92,401.53h10.79v48.97h30.38v9.13h-41.17V401.53z"/>
		<path class="st4" d="M454.13,406.22c-1.27-1.19-1.91-2.67-1.91-4.44c0-1.77,0.64-3.25,1.91-4.44c1.27-1.19,2.85-1.79,4.73-1.79
			c1.88,0,3.46,0.57,4.73,1.7c1.27,1.13,1.91,2.56,1.91,4.27c0,1.83-0.62,3.36-1.87,4.61s-2.84,1.87-4.77,1.87
			C456.98,408.01,455.41,407.41,454.13,406.22z M453.64,415.31h10.38v44.32h-10.38V415.31z"/>
		<path class="st4" d="M519.12,440.79h-34.78c0.61,3.27,2.2,5.85,4.77,7.76c2.57,1.91,5.77,2.86,9.59,2.86
			c4.87,0,8.88-1.6,12.04-4.81l5.56,6.39c-1.99,2.38-4.51,4.18-7.55,5.39c-3.04,1.22-6.47,1.83-10.29,1.83
			c-4.87,0-9.16-0.97-12.86-2.91c-3.71-1.94-6.57-4.63-8.59-8.09c-2.02-3.46-3.03-7.37-3.03-11.75c0-4.32,0.98-8.2,2.95-11.66
			c1.96-3.46,4.69-6.16,8.18-8.09c3.49-1.94,7.41-2.91,11.79-2.91c4.32,0,8.18,0.96,11.58,2.86c3.4,1.91,6.06,4.59,7.97,8.05
			c1.91,3.46,2.86,7.46,2.86,11.99C519.29,438.44,519.23,439.46,519.12,440.79z M480.2,397.88h12.2l11.21,11.37h-8.96L480.2,397.88z
			 M488.45,426.06c-2.3,1.96-3.69,4.58-4.19,7.84h25.15c-0.44-3.21-1.8-5.81-4.07-7.8c-2.27-1.99-5.09-2.99-8.47-2.99
			C493.56,423.11,490.75,424.09,488.45,426.06z"/>
		<path class="st4" d="M573.24,415.31v37.6c0,15.6-7.97,23.41-23.9,23.41c-4.26,0-8.3-0.54-12.12-1.62
			c-3.82-1.08-6.97-2.64-9.46-4.69l4.65-7.8c1.94,1.6,4.38,2.89,7.35,3.86c2.96,0.97,5.96,1.45,9,1.45c4.87,0,8.44-1.11,10.71-3.32
			c2.27-2.21,3.4-5.59,3.4-10.13v-2.32c-1.77,1.94-3.93,3.4-6.47,4.4c-2.55,1-5.34,1.49-8.38,1.49c-4.21,0-8.01-0.9-11.41-2.7
			c-3.4-1.8-6.09-4.33-8.05-7.59c-1.96-3.26-2.95-7-2.95-11.21c0-4.2,0.98-7.93,2.95-11.16c1.96-3.24,4.65-5.74,8.05-7.51
			c3.4-1.77,7.21-2.66,11.41-2.66c3.21,0,6.13,0.53,8.76,1.58c2.63,1.05,4.83,2.66,6.6,4.81v-5.89H573.24z M559.25,445.31
			c2.52-2.35,3.78-5.41,3.78-9.17c0-3.71-1.26-6.72-3.78-9.05c-2.52-2.32-5.74-3.49-9.67-3.49c-3.98,0-7.24,1.16-9.75,3.49
			c-2.52,2.32-3.78,5.34-3.78,9.05c0,3.76,1.26,6.82,3.78,9.17c2.52,2.35,5.77,3.53,9.75,3.53
			C553.51,448.84,556.74,447.67,559.25,445.31z"/>
		<path class="st4" d="M628.35,440.79h-34.78c0.61,3.27,2.2,5.85,4.77,7.76c2.57,1.91,5.77,2.86,9.59,2.86
			c4.87,0,8.88-1.6,12.04-4.81l5.56,6.39c-1.99,2.38-4.51,4.18-7.55,5.39c-3.04,1.22-6.47,1.83-10.29,1.83
			c-4.87,0-9.16-0.97-12.86-2.91c-3.71-1.94-6.57-4.63-8.59-8.09c-2.02-3.46-3.03-7.37-3.03-11.75c0-4.32,0.98-8.2,2.95-11.66
			c1.96-3.46,4.69-6.16,8.18-8.09c3.49-1.94,7.41-2.91,11.79-2.91c4.32,0,8.18,0.96,11.58,2.86c3.4,1.91,6.06,4.59,7.97,8.05
			c1.91,3.46,2.86,7.46,2.86,11.99C628.52,438.44,628.46,439.46,628.35,440.79z M597.68,426.06c-2.3,1.96-3.69,4.58-4.19,7.84h25.15
			c-0.44-3.21-1.8-5.81-4.07-7.8c-2.27-1.99-5.09-2.99-8.47-2.99C602.79,423.11,599.98,424.09,597.68,426.06z"/>
	</g>
</g>
</svg>
