<?xml version="1.0" encoding="utf-8"?>
<!-- Generator: Adobe Illustrator 23.0.3, SVG Export Plug-In . SVG Version: 6.00 Build 0)  -->
<svg version="1.1" id="Laag_1" xmlns="http://www.w3.org/2000/svg" xmlns:xlink="http://www.w3.org/1999/xlink" x="0px" y="0px"
	 viewBox="0 0 708.66 536.4" style="enable-background:new 0 0 708.66 536.4;" xml:space="preserve">
<style type="text/css">
	.st0{fill:#1E3142;}
	.st1{fill:#A1CCC5;}
	.st2{fill:#F4D24A;}
	.st3{fill:#3FA3A8;}
	.st4{fill:#B4B4B3;}
</style>
<g>
	<g>
		<path class="st0" d="M582.05,340.1h-51.95l-9.65,23.87h-35.46l54.24-122.87h34.23l54.41,122.87H591.7L582.05,340.1z
			 M571.87,314.47l-15.8-39.32l-15.8,39.32H571.87z"/>
		<path class="st0" d="M384.64,362.74c-9.36-2.46-16.97-5.73-22.82-9.83l11.41-25.63c5.5,3.62,11.87,6.55,19.13,8.78
			c7.25,2.22,14.39,3.33,21.41,3.33c13.34,0,20.01-3.33,20.01-10.01c0-3.51-1.9-6.11-5.7-7.81c-3.81-1.69-9.92-3.48-18.34-5.35
			c-9.25-1.99-16.97-4.12-23.17-6.4c-6.21-2.28-11.53-5.94-15.97-10.97c-4.45-5.03-6.67-11.82-6.67-20.37
			c0-7.49,2.05-14.25,6.14-20.27c4.09-6.03,10.21-10.8,18.35-14.31c8.13-3.51,18.1-5.27,29.93-5.27c8.07,0,16.03,0.91,23.87,2.72
			c7.83,1.81,14.74,4.48,20.71,7.99l-10.71,25.8c-11.7-6.32-23.06-9.48-34.05-9.48c-6.91,0-11.94,1.03-15.09,3.07
			c-3.16,2.05-4.74,4.71-4.74,7.99c0,3.28,1.87,5.73,5.62,7.37c3.74,1.64,9.77,3.33,18.08,5.09c9.36,1.99,17.11,4.12,23.26,6.4
			c6.14,2.28,11.46,5.91,15.97,10.88c4.5,4.98,6.76,11.73,6.76,20.27c0,7.38-2.05,14.05-6.15,20.01
			c-4.1,5.97-10.24,10.74-18.43,14.31c-8.19,3.57-18.14,5.35-29.84,5.35C403.66,366.43,394.01,365.2,384.64,362.74z"/>
		<path class="st0" d="M448.45,198.76l-0.35-65.12l-31.6,53.01h-15.45l-31.42-51.25v63.37h-32.12V75.89h28.61l43.18,70.91
			l42.12-70.91h28.61l0.35,122.87H448.45z"/>
		<path class="st0" d="M314.55,159.62H245.4c1.4,4.92,4.12,8.69,8.16,11.32c4.03,2.63,9.1,3.95,15.18,3.95
			c4.56,0,8.52-0.64,11.85-1.93c3.34-1.29,6.7-3.39,10.09-6.32l17.55,18.26c-9.25,10.3-22.76,15.45-40.55,15.45
			c-11.12,0-20.89-2.11-29.31-6.32s-14.95-10.06-19.57-17.55s-6.93-15.97-6.93-25.45c0-9.36,2.25-17.76,6.76-25.19
			c4.5-7.43,10.73-13.25,18.69-17.46c7.96-4.21,16.91-6.32,26.86-6.32c9.48,0,18.08,1.96,25.8,5.88c7.72,3.92,13.83,9.6,18.34,17.03
			c4.5,7.43,6.76,16.24,6.76,26.42C315.08,151.61,314.91,154.36,314.55,159.62z M251.45,130.13c-3.45,2.93-5.65,6.9-6.58,11.94
			h38.97c-0.94-5.03-3.13-9.01-6.58-11.94c-3.45-2.92-7.75-4.39-12.9-4.39C259.2,125.74,254.9,127.21,251.45,130.13z"/>
		<path class="st0" d="M188.16,146.19c3.98,5.21,5.97,11.5,5.97,18.87c0,10.77-4.33,19.08-12.99,24.92
			c-8.66,5.85-21.18,8.78-37.56,8.78H77.22V75.89h62.84c15.68,0,27.62,2.9,35.81,8.69c8.19,5.79,12.29,13.6,12.29,23.43
			c0,5.85-1.43,11.09-4.3,15.71c-2.87,4.63-6.93,8.28-12.2,10.97C178.68,137.15,184.18,140.99,188.16,146.19z M111.63,100.99v23.7
			h23.87c11.7,0,17.55-3.98,17.55-11.94c0-7.84-5.85-11.76-17.55-11.76H111.63z M159.02,161.2c0-8.31-6.09-12.46-18.26-12.46h-29.14
			v24.93h29.14C152.93,173.66,159.02,169.51,159.02,161.2z"/>
		<circle class="st1" cx="129.29" cy="297.98" r="31.54"/>
		<circle class="st2" cx="265.75" cy="297.98" r="31.54"/>
		<circle class="st3" cx="557.87" cy="146.34" r="31.54"/>
	</g>
	<path class="st4" d="M506.82,401.53l-25.31,58.1h-10.62l-25.4-58.1h11.7l19.34,44.82l19.5-44.82H506.82z"/>
	<path class="st4" d="M625.11,434.69c1.88,2.46,2.82,5.52,2.82,9.17c0,5.04-1.94,8.92-5.81,11.66c-3.87,2.74-9.52,4.11-16.93,4.11
		h-28.88v-58.1h27.22c6.86,0,12.14,1.34,15.85,4.03c3.71,2.68,5.56,6.38,5.56,11.08c0,2.88-0.66,5.42-1.99,7.64
		c-1.33,2.21-3.15,3.93-5.48,5.15C620.68,430.47,623.23,432.23,625.11,434.69z M587.1,410v16.02h15.27c3.76,0,6.65-0.68,8.67-2.03
		c2.02-1.36,3.03-3.33,3.03-5.93c0-2.66-1.01-4.66-3.03-6.02c-2.02-1.36-4.91-2.03-8.67-2.03H587.1z M617.06,442.78
		c0-5.59-4.18-8.38-12.53-8.38H587.1v16.77h17.43C612.88,451.17,617.06,448.37,617.06,442.78z"/>
	<path class="st4" d="M522.56,453.7c-4.48-4.51-6.72-10.97-6.72-19.38v-32.78h10.79v32.37c0,11.4,4.92,17.1,14.77,17.1
		c9.79,0,14.69-5.7,14.69-17.1v-32.37h10.62v32.78c0,8.41-2.23,14.87-6.68,19.38c-4.46,4.51-10.69,6.76-18.72,6.76
		C533.29,460.46,527.04,458.21,522.56,453.7z"/>
</g>
</svg>
