<?xml version="1.0" encoding="utf-8"?>
<!-- Generator: Adobe Illustrator 23.0.3, SVG Export Plug-In . SVG Version: 6.00 Build 0)  -->
<svg version="1.1" id="Laag_1" xmlns="http://www.w3.org/2000/svg" xmlns:xlink="http://www.w3.org/1999/xlink" x="0px" y="0px"
	 viewBox="0 0 332.23 68.99" style="enable-background:new 0 0 332.23 68.99;" xml:space="preserve">
<style type="text/css">
	.st0{fill:#FFFFFF;}
	.st1{fill:#3FA3A8;}
	.st2{fill:#F4D34E;}
	.st3{fill:#1E3142;}
	.st4{fill:#A2CCC5;}
</style>
<g>
	<path class="st4" d="M241.69,34.68c0,4.33-3.51,7.84-7.84,7.84c-4.33,0-7.84-3.51-7.84-7.84s3.51-7.84,7.84-7.84
		C238.19,26.84,241.69,30.35,241.69,34.68"/>
	<path class="st4" d="M106.03,34.68c0,4.33-3.51,7.84-7.84,7.84c-4.33,0-7.84-3.51-7.84-7.84s3.51-7.84,7.84-7.84
		C102.52,26.84,106.03,30.35,106.03,34.68"/>
	<path class="st4" d="M207.78,34.68c0,4.33-3.51,7.84-7.84,7.84c-4.33,0-7.84-3.51-7.84-7.84s3.51-7.84,7.84-7.84
		C204.27,26.84,207.78,30.35,207.78,34.68"/>
	<path class="st4" d="M72.12,34.68c0,4.33-3.51,7.84-7.84,7.84s-7.84-3.51-7.84-7.84s3.51-7.84,7.84-7.84S72.12,30.35,72.12,34.68"
		/>
	<path class="st4" d="M38.38,34.31c0,4.33-3.51,7.84-7.84,7.84s-7.84-3.51-7.84-7.84s3.51-7.84,7.84-7.84S38.38,29.98,38.38,34.31"
		/>
	<path class="st4" d="M309.53,34.68c0,4.33-3.51,7.84-7.84,7.84s-7.84-3.51-7.84-7.84s3.51-7.84,7.84-7.84
		S309.53,30.35,309.53,34.68"/>
	<path class="st4" d="M173.86,34.68c0,4.33-3.51,7.84-7.84,7.84c-4.33,0-7.84-3.51-7.84-7.84s3.51-7.84,7.84-7.84
		C170.35,26.84,173.86,30.35,173.86,34.68"/>
	<path class="st4" d="M275.61,34.68c0,4.33-3.51,7.84-7.84,7.84s-7.84-3.51-7.84-7.84s3.51-7.84,7.84-7.84
		S275.61,30.35,275.61,34.68"/>
	<path class="st4" d="M139.95,34.68c0,4.33-3.51,7.84-7.84,7.84c-4.33,0-7.84-3.51-7.84-7.84s3.51-7.84,7.84-7.84
		C136.44,26.84,139.95,30.35,139.95,34.68"/>
</g>
</svg>
