<?xml version="1.0" encoding="utf-8"?>
<!-- Generator: Adobe Illustrator 23.0.3, SVG Export Plug-In . SVG Version: 6.00 Build 0)  -->
<svg version="1.1" id="Laag_1" xmlns="http://www.w3.org/2000/svg" xmlns:xlink="http://www.w3.org/1999/xlink" x="0px" y="0px"
	 viewBox="0 0 708.66 536.4" style="enable-background:new 0 0 708.66 536.4;" xml:space="preserve">
<style type="text/css">
	.st0{fill:#1E3142;}
	.st1{fill:#A1CCC5;}
	.st2{fill:#F4D24A;}
	.st3{fill:#3FA4A9;}
	.st4{fill:#B5B5B3;}
</style>
<g>
	<path class="st0" d="M582.05,340.1h-51.95l-9.65,23.87h-35.46l54.24-122.87h34.23l54.41,122.87H591.7L582.05,340.1z M571.87,314.47
		l-15.8-39.32l-15.8,39.32H571.87z"/>
	<path class="st0" d="M384.64,362.74c-9.36-2.46-16.97-5.73-22.82-9.83l11.41-25.63c5.5,3.62,11.87,6.55,19.13,8.78
		c7.25,2.22,14.39,3.33,21.41,3.33c13.34,0,20.01-3.33,20.01-10.01c0-3.51-1.9-6.11-5.7-7.81c-3.81-1.69-9.92-3.48-18.34-5.35
		c-9.25-1.99-16.97-4.12-23.17-6.4c-6.21-2.28-11.53-5.94-15.97-10.97c-4.45-5.03-6.67-11.82-6.67-20.37
		c0-7.49,2.05-14.25,6.14-20.27c4.09-6.03,10.21-10.8,18.35-14.31c8.13-3.51,18.1-5.27,29.93-5.27c8.07,0,16.03,0.91,23.87,2.72
		c7.83,1.81,14.74,4.48,20.71,7.99l-10.71,25.8c-11.7-6.32-23.06-9.48-34.05-9.48c-6.91,0-11.94,1.03-15.09,3.07
		c-3.16,2.05-4.74,4.71-4.74,7.99c0,3.28,1.87,5.73,5.62,7.37c3.74,1.64,9.77,3.33,18.08,5.09c9.36,1.99,17.11,4.12,23.26,6.4
		c6.14,2.28,11.46,5.91,15.97,10.88c4.5,4.98,6.76,11.73,6.76,20.27c0,7.38-2.05,14.05-6.15,20.01
		c-4.1,5.97-10.24,10.74-18.43,14.31c-8.19,3.57-18.14,5.35-29.84,5.35C403.66,366.43,394.01,365.2,384.64,362.74z"/>
	<path class="st0" d="M448.45,198.76l-0.35-65.12l-31.6,53.01h-15.45l-31.42-51.25v63.37h-32.12V75.89h28.61l43.18,70.91
		l42.12-70.91h28.61l0.35,122.87H448.45z"/>
	<path class="st0" d="M314.55,159.62H245.4c1.4,4.92,4.12,8.69,8.16,11.32c4.03,2.63,9.1,3.95,15.18,3.95
		c4.56,0,8.52-0.64,11.85-1.93c3.34-1.29,6.7-3.39,10.09-6.32l17.55,18.26c-9.25,10.3-22.76,15.45-40.55,15.45
		c-11.12,0-20.89-2.11-29.31-6.32s-14.95-10.06-19.57-17.55s-6.93-15.97-6.93-25.45c0-9.36,2.25-17.76,6.76-25.19
		c4.5-7.43,10.73-13.25,18.69-17.46c7.96-4.21,16.91-6.32,26.86-6.32c9.48,0,18.08,1.96,25.8,5.88c7.72,3.92,13.83,9.6,18.34,17.03
		c4.5,7.43,6.76,16.24,6.76,26.42C315.08,151.61,314.91,154.36,314.55,159.62z M251.45,130.13c-3.45,2.93-5.65,6.9-6.58,11.94h38.97
		c-0.94-5.03-3.13-9.01-6.58-11.94c-3.45-2.92-7.75-4.39-12.9-4.39C259.2,125.74,254.9,127.21,251.45,130.13z"/>
	<path class="st0" d="M188.16,146.19c3.98,5.21,5.97,11.5,5.97,18.87c0,10.77-4.33,19.08-12.99,24.92
		c-8.66,5.85-21.18,8.78-37.56,8.78H77.22V75.89h62.84c15.68,0,27.62,2.9,35.81,8.69c8.19,5.79,12.29,13.6,12.29,23.43
		c0,5.85-1.43,11.09-4.3,15.71c-2.87,4.63-6.93,8.28-12.2,10.97C178.68,137.15,184.18,140.99,188.16,146.19z M111.63,100.99v23.7
		h23.87c11.7,0,17.55-3.98,17.55-11.94c0-7.84-5.85-11.76-17.55-11.76H111.63z M159.02,161.2c0-8.31-6.09-12.46-18.26-12.46h-29.14
		v24.93h29.14C152.93,173.66,159.02,169.51,159.02,161.2z"/>
	<circle class="st1" cx="129.29" cy="297.98" r="31.54"/>
	<circle class="st2" cx="265.75" cy="297.98" r="31.54"/>
	<circle class="st3" cx="557.87" cy="146.34" r="31.54"/>
	<g>
		<path class="st4" d="M375.04,401.53v58.1h-10.79v-24.9H334.2v24.9h-10.79v-58.1h10.79v23.99h30.05v-23.99H375.04z"/>
		<path class="st4" d="M421.56,419.5c3.46,3.13,5.19,7.84,5.19,14.15v25.98h-9.79v-5.39c-1.27,1.94-3.09,3.42-5.44,4.44
			c-2.35,1.02-5.19,1.54-8.51,1.54s-6.22-0.57-8.71-1.7c-2.49-1.13-4.41-2.71-5.77-4.73c-1.36-2.02-2.03-4.3-2.03-6.85
			c0-3.98,1.48-7.18,4.44-9.59c2.96-2.41,7.62-3.61,13.99-3.61h11.45v-0.66c0-3.1-0.93-5.48-2.78-7.14
			c-1.86-1.66-4.61-2.49-8.26-2.49c-2.49,0-4.94,0.39-7.35,1.16c-2.41,0.78-4.44,1.85-6.1,3.24l-4.07-7.55
			c2.32-1.77,5.12-3.13,8.38-4.07c3.26-0.94,6.72-1.41,10.38-1.41C413.1,414.81,418.1,416.38,421.56,419.5z M412.09,450.87
			c2.02-1.19,3.44-2.89,4.27-5.1v-5.15h-10.71c-5.98,0-8.96,1.96-8.96,5.89c0,1.88,0.75,3.38,2.24,4.48
			c1.49,1.11,3.57,1.66,6.23,1.66C407.76,452.66,410.07,452.07,412.09,450.87z"/>
		<path class="st4" d="M443.18,458.8c-3.43-0.94-6.17-2.13-8.22-3.57l3.98-7.88c1.99,1.33,4.38,2.39,7.18,3.2
			c2.79,0.8,5.55,1.2,8.26,1.2c6.2,0,9.3-1.63,9.3-4.9c0-1.55-0.79-2.63-2.37-3.24c-1.58-0.61-4.11-1.19-7.59-1.74
			c-3.65-0.55-6.63-1.19-8.92-1.91c-2.3-0.72-4.29-1.98-5.98-3.78c-1.69-1.8-2.53-4.3-2.53-7.51c0-4.2,1.76-7.57,5.27-10.08
			c3.51-2.52,8.26-3.78,14.23-3.78c3.04,0,6.09,0.35,9.13,1.04c3.04,0.69,5.53,1.62,7.47,2.78l-3.98,7.88
			c-3.76-2.21-8-3.32-12.7-3.32c-3.04,0-5.35,0.46-6.93,1.37s-2.37,2.12-2.37,3.61c0,1.66,0.84,2.84,2.53,3.53
			c1.69,0.69,4.3,1.34,7.84,1.95c3.54,0.55,6.45,1.19,8.71,1.91c2.27,0.72,4.22,1.94,5.85,3.65c1.63,1.72,2.45,4.15,2.45,7.3
			c0,4.15-1.8,7.47-5.39,9.96c-3.6,2.49-8.5,3.74-14.69,3.74C450.12,460.21,446.61,459.74,443.18,458.8z"/>
		<path class="st4" d="M485.92,458.8c-3.43-0.94-6.17-2.13-8.22-3.57l3.98-7.88c1.99,1.33,4.38,2.39,7.18,3.2
			c2.79,0.8,5.55,1.2,8.26,1.2c6.2,0,9.3-1.63,9.3-4.9c0-1.55-0.79-2.63-2.37-3.24c-1.58-0.61-4.11-1.19-7.59-1.74
			c-3.65-0.55-6.63-1.19-8.92-1.91c-2.3-0.72-4.29-1.98-5.98-3.78c-1.69-1.8-2.53-4.3-2.53-7.51c0-4.2,1.76-7.57,5.27-10.08
			c3.51-2.52,8.26-3.78,14.23-3.78c3.04,0,6.09,0.35,9.13,1.04c3.04,0.69,5.53,1.62,7.47,2.78l-3.98,7.88
			c-3.76-2.21-8-3.32-12.7-3.32c-3.04,0-5.35,0.46-6.93,1.37s-2.37,2.12-2.37,3.61c0,1.66,0.84,2.84,2.53,3.53
			c1.69,0.69,4.3,1.34,7.84,1.95c3.54,0.55,6.45,1.19,8.71,1.91c2.27,0.72,4.22,1.94,5.85,3.65c1.63,1.72,2.45,4.15,2.45,7.3
			c0,4.15-1.8,7.47-5.39,9.96c-3.6,2.49-8.5,3.74-14.69,3.74C492.87,460.21,489.35,459.74,485.92,458.8z"/>
		<path class="st4" d="M567.01,440.79h-34.78c0.61,3.27,2.2,5.85,4.77,7.76c2.57,1.91,5.77,2.86,9.59,2.86
			c4.87,0,8.88-1.6,12.04-4.81l5.56,6.39c-1.99,2.38-4.51,4.18-7.55,5.39c-3.04,1.22-6.47,1.83-10.29,1.83
			c-4.87,0-9.16-0.97-12.86-2.91c-3.71-1.94-6.57-4.63-8.59-8.09c-2.02-3.46-3.03-7.37-3.03-11.75c0-4.32,0.98-8.2,2.95-11.66
			c1.96-3.46,4.69-6.16,8.18-8.09c3.49-1.94,7.41-2.91,11.79-2.91c4.32,0,8.18,0.96,11.58,2.86c3.4,1.91,6.06,4.59,7.97,8.05
			c1.91,3.46,2.86,7.46,2.86,11.99C567.18,438.44,567.12,439.46,567.01,440.79z M536.35,426.06c-2.3,1.96-3.69,4.58-4.19,7.84h25.15
			c-0.44-3.21-1.8-5.81-4.07-7.8c-2.27-1.99-5.09-2.99-8.47-2.99C541.45,423.11,538.64,424.09,536.35,426.06z"/>
		<path class="st4" d="M577.14,398.05h10.38v61.59h-10.38V398.05z"/>
		<path class="st4" d="M629.93,457.22c-1.22,1-2.7,1.74-4.44,2.24s-3.58,0.75-5.52,0.75c-4.87,0-8.63-1.27-11.29-3.82
			c-2.66-2.54-3.98-6.25-3.98-11.12v-21.33h-7.3v-8.3h7.3v-10.13h10.38v10.13h11.87v8.3h-11.87v21.08c0,2.16,0.53,3.81,1.58,4.94
			c1.05,1.13,2.57,1.7,4.57,1.7c2.32,0,4.26-0.61,5.81-1.83L629.93,457.22z"/>
	</g>
</g>
</svg>
