<?xml version="1.0" encoding="utf-8"?>
<!-- Generator: Adobe Illustrator 23.0.3, SVG Export Plug-In . SVG Version: 6.00 Build 0)  -->
<svg version="1.1" id="Laag_1" xmlns="http://www.w3.org/2000/svg" xmlns:xlink="http://www.w3.org/1999/xlink" x="0px" y="0px"
	 viewBox="0 0 708.66 536.4" style="enable-background:new 0 0 708.66 536.4;" xml:space="preserve">
<style type="text/css">
	.st0{fill:#194052;}
	.st1{fill:#98C6BB;}
	.st2{fill:#F3CC23;}
	.st3{fill:#4CADA9;}
	.st4{fill:#B5B5B3;}
</style>
<g>
	<path class="st0" d="M582.05,340.1h-51.95l-9.65,23.87h-35.46l54.24-122.87h34.23l54.41,122.87H591.7L582.05,340.1z M571.87,314.47
		l-15.8-39.32l-15.8,39.32H571.87z"/>
	<path class="st0" d="M384.64,362.74c-9.36-2.46-16.97-5.73-22.82-9.83l11.41-25.63c5.5,3.62,11.87,6.55,19.13,8.78
		c7.25,2.22,14.39,3.33,21.41,3.33c13.34,0,20.01-3.33,20.01-10.01c0-3.51-1.9-6.11-5.7-7.81c-3.81-1.69-9.92-3.48-18.34-5.35
		c-9.25-1.99-16.97-4.12-23.17-6.4c-6.21-2.28-11.53-5.94-15.97-10.97c-4.45-5.03-6.67-11.82-6.67-20.37
		c0-7.49,2.05-14.25,6.14-20.27c4.09-6.03,10.21-10.8,18.35-14.31c8.13-3.51,18.1-5.27,29.93-5.27c8.07,0,16.03,0.91,23.87,2.72
		c7.83,1.81,14.74,4.48,20.71,7.99l-10.71,25.8c-11.7-6.32-23.06-9.48-34.05-9.48c-6.91,0-11.94,1.03-15.09,3.07
		c-3.16,2.05-4.74,4.71-4.74,7.99c0,3.28,1.87,5.73,5.62,7.37c3.74,1.64,9.77,3.33,18.08,5.09c9.36,1.99,17.11,4.12,23.26,6.4
		c6.14,2.28,11.46,5.91,15.97,10.88c4.5,4.98,6.76,11.73,6.76,20.27c0,7.38-2.05,14.05-6.15,20.01
		c-4.1,5.97-10.24,10.74-18.43,14.31c-8.19,3.57-18.14,5.35-29.84,5.35C403.66,366.43,394.01,365.2,384.64,362.74z"/>
	<path class="st0" d="M448.45,198.76l-0.35-65.12l-31.6,53.01h-15.45l-31.42-51.25v63.37h-32.12V75.89h28.61l43.18,70.91
		l42.12-70.91h28.61l0.35,122.87H448.45z"/>
	<path class="st0" d="M314.55,159.62H245.4c1.4,4.92,4.12,8.69,8.16,11.32c4.03,2.63,9.1,3.95,15.18,3.95
		c4.56,0,8.52-0.64,11.85-1.93c3.34-1.29,6.7-3.39,10.09-6.32l17.55,18.26c-9.25,10.3-22.76,15.45-40.55,15.45
		c-11.12,0-20.89-2.11-29.31-6.32s-14.95-10.06-19.57-17.55s-6.93-15.97-6.93-25.45c0-9.36,2.25-17.76,6.76-25.19
		c4.5-7.43,10.73-13.25,18.69-17.46c7.96-4.21,16.91-6.32,26.86-6.32c9.48,0,18.08,1.96,25.8,5.88c7.72,3.92,13.83,9.6,18.34,17.03
		c4.5,7.43,6.76,16.24,6.76,26.42C315.08,151.61,314.91,154.36,314.55,159.62z M251.45,130.13c-3.45,2.93-5.65,6.9-6.58,11.94h38.97
		c-0.94-5.03-3.13-9.01-6.58-11.94c-3.45-2.92-7.75-4.39-12.9-4.39C259.2,125.74,254.9,127.21,251.45,130.13z"/>
	<path class="st0" d="M188.16,146.19c3.98,5.21,5.97,11.5,5.97,18.87c0,10.77-4.33,19.08-12.99,24.92
		c-8.66,5.85-21.18,8.78-37.56,8.78H77.22V75.89h62.84c15.68,0,27.62,2.9,35.81,8.69c8.19,5.79,12.29,13.6,12.29,23.43
		c0,5.85-1.43,11.09-4.3,15.71c-2.87,4.63-6.93,8.28-12.2,10.97C178.68,137.15,184.18,140.99,188.16,146.19z M111.63,100.99v23.7
		h23.87c11.7,0,17.55-3.98,17.55-11.94c0-7.84-5.85-11.76-17.55-11.76H111.63z M159.02,161.2c0-8.31-6.09-12.46-18.26-12.46h-29.14
		v24.93h29.14C152.93,173.66,159.02,169.51,159.02,161.2z"/>
	<circle class="st1" cx="129.29" cy="297.98" r="31.54"/>
	<circle class="st2" cx="265.75" cy="297.98" r="31.54"/>
	<circle class="st3" cx="557.87" cy="146.34" r="31.54"/>
	<g>
		<path class="st4" d="M326.81,401.53h10.79v48.97h30.38v9.13h-41.17V401.53z"/>
		<path class="st4" d="M416.62,440.79h-34.78c0.61,3.27,2.2,5.85,4.77,7.76c2.57,1.91,5.77,2.86,9.59,2.86
			c4.87,0,8.88-1.6,12.04-4.81l5.56,6.39c-1.99,2.38-4.51,4.18-7.55,5.39c-3.04,1.22-6.47,1.83-10.29,1.83
			c-4.87,0-9.16-0.97-12.86-2.91c-3.71-1.94-6.57-4.63-8.59-8.09c-2.02-3.46-3.03-7.37-3.03-11.75c0-4.32,0.98-8.2,2.95-11.66
			c1.96-3.46,4.69-6.16,8.18-8.09c3.49-1.94,7.41-2.91,11.79-2.91c4.32,0,8.18,0.96,11.58,2.86c3.4,1.91,6.06,4.59,7.97,8.05
			c1.91,3.46,2.86,7.46,2.86,11.99C416.78,438.44,416.73,439.46,416.62,440.79z M385.95,426.06c-2.3,1.96-3.69,4.58-4.19,7.84h25.15
			c-0.44-3.21-1.8-5.81-4.07-7.8c-2.27-1.99-5.09-2.99-8.47-2.99C391.05,423.11,388.24,424.09,385.95,426.06z"/>
		<path class="st4" d="M469.65,415.31v44.32h-9.88v-5.64c-1.66,1.99-3.73,3.53-6.22,4.61c-2.49,1.08-5.17,1.62-8.05,1.62
			c-5.92,0-10.58-1.65-13.99-4.94c-3.4-3.29-5.1-8.18-5.1-14.65v-25.32h10.38v23.9c0,3.98,0.9,6.96,2.7,8.92
			c1.8,1.96,4.36,2.95,7.68,2.95c3.71,0,6.65-1.15,8.84-3.44c2.19-2.3,3.28-5.6,3.28-9.92v-22.41H469.65z"/>
		<path class="st4" d="M524.77,415.31l-19.01,44.32h-10.71l-19.01-44.32h10.79l13.78,32.87l14.19-32.87H524.77z"/>
		<path class="st4" d="M571.49,440.79h-34.78c0.61,3.27,2.2,5.85,4.77,7.76c2.57,1.91,5.77,2.86,9.59,2.86
			c4.87,0,8.88-1.6,12.04-4.81l5.56,6.39c-1.99,2.38-4.51,4.18-7.55,5.39c-3.04,1.22-6.47,1.83-10.29,1.83
			c-4.87,0-9.16-0.97-12.86-2.91c-3.71-1.94-6.57-4.63-8.59-8.09c-2.02-3.46-3.03-7.37-3.03-11.75c0-4.32,0.98-8.2,2.95-11.66
			c1.96-3.46,4.69-6.16,8.18-8.09c3.49-1.94,7.41-2.91,11.79-2.91c4.32,0,8.18,0.96,11.58,2.86c3.4,1.91,6.06,4.59,7.97,8.05
			c1.91,3.46,2.86,7.46,2.86,11.99C571.66,438.44,571.6,439.46,571.49,440.79z M540.83,426.06c-2.3,1.96-3.69,4.58-4.19,7.84h25.15
			c-0.44-3.21-1.8-5.81-4.07-7.8c-2.27-1.99-5.09-2.99-8.47-2.99C545.93,423.11,543.12,424.09,540.83,426.06z"/>
		<path class="st4" d="M620.22,419.71c3.37,3.27,5.06,8.11,5.06,14.52v25.4H614.9v-24.07c0-3.87-0.91-6.79-2.74-8.76
			c-1.83-1.96-4.43-2.95-7.8-2.95c-3.82,0-6.83,1.15-9.05,3.45c-2.21,2.3-3.32,5.6-3.32,9.92v22.41h-10.38v-44.32h9.88v5.73
			c1.71-2.05,3.87-3.6,6.47-4.65c2.6-1.05,5.53-1.58,8.8-1.58C612.36,414.81,616.84,416.44,620.22,419.71z"/>
	</g>
</g>
</svg>
