<?xml version="1.0" encoding="utf-8"?>
<!-- Generator: Adobe Illustrator 23.0.3, SVG Export Plug-In . SVG Version: 6.00 Build 0)  -->
<svg version="1.1" id="Laag_1" xmlns="http://www.w3.org/2000/svg" xmlns:xlink="http://www.w3.org/1999/xlink" x="0px" y="0px"
	 viewBox="0 0 290.33 178.75" style="enable-background:new 0 0 290.33 178.75;" xml:space="preserve">
<style type="text/css">
	.st0{fill:#1E3142;}
	.st1{fill:#A1CCC5;}
	.st2{fill:#F4D24A;}
	.st3{fill:#3FA3A8;}
	.st4{fill:#FFFFFF;}
</style>
<rect class="st0" width="290.33" height="178.75"/>
<g>
	<circle class="st4" cx="107.93" cy="122.33" r="13.53"/>
	<circle class="st4" cx="49.39" cy="122.33" r="13.53"/>
	<circle class="st4" cx="233.25" cy="57.28" r="13.53"/>
	<path class="st4" d="M243.62,140.4h-22.29l-4.14,10.24h-15.21l23.27-52.71h14.68l23.34,52.71h-15.51L243.62,140.4z M239.25,129.4
		l-6.78-16.87l-6.78,16.87H239.25z"/>
	<path class="st4" d="M158.94,150.11c-4.02-1.06-7.28-2.46-9.79-4.22l4.89-10.99c2.36,1.56,5.09,2.81,8.21,3.77
		c3.11,0.95,6.17,1.43,9.19,1.43c5.72,0,8.58-1.43,8.58-4.29c0-1.51-0.82-2.62-2.45-3.35c-1.63-0.73-4.25-1.49-7.87-2.3
		c-3.97-0.85-7.28-1.77-9.94-2.75c-2.66-0.98-4.94-2.55-6.85-4.71c-1.91-2.16-2.86-5.07-2.86-8.74c0-3.21,0.88-6.11,2.63-8.7
		c1.76-2.59,4.38-4.63,7.87-6.14c3.49-1.51,7.77-2.26,12.84-2.26c3.46,0,6.88,0.39,10.24,1.17c3.36,0.78,6.32,1.92,8.88,3.43
		l-4.59,11.07c-5.02-2.71-9.89-4.07-14.61-4.07c-2.96,0-5.12,0.44-6.48,1.32c-1.36,0.88-2.03,2.02-2.03,3.43
		c0,1.41,0.8,2.46,2.41,3.16c1.6,0.7,4.19,1.43,7.76,2.18c4.01,0.85,7.34,1.77,9.98,2.75c2.63,0.98,4.92,2.54,6.85,4.67
		c1.93,2.13,2.9,5.03,2.9,8.7c0,3.16-0.88,6.03-2.64,8.58c-1.76,2.56-4.39,4.61-7.91,6.14c-3.51,1.53-7.78,2.3-12.8,2.3
		C167.1,151.69,162.95,151.17,158.94,150.11z"/>
	<path class="st4" d="M186.31,79.77l-0.15-27.94L172.6,74.57h-6.63L152.5,52.58v27.18h-13.78V27.06h12.27l18.52,30.42l18.07-30.42
		h12.27l0.15,52.71H186.31z"/>
	<path class="st4" d="M128.87,62.98H99.2c0.6,2.11,1.77,3.73,3.5,4.86c1.73,1.13,3.9,1.69,6.51,1.69c1.96,0,3.65-0.28,5.08-0.83
		c1.43-0.55,2.87-1.46,4.33-2.71l7.53,7.83c-3.97,4.42-9.76,6.63-17.4,6.63c-4.77,0-8.96-0.9-12.57-2.71
		c-3.61-1.81-6.41-4.32-8.4-7.53c-1.98-3.21-2.97-6.85-2.97-10.92c0-4.02,0.96-7.62,2.9-10.81c1.93-3.19,4.6-5.68,8.02-7.49
		c3.41-1.81,7.25-2.71,11.52-2.71c4.07,0,7.76,0.84,11.07,2.52c3.31,1.68,5.93,4.12,7.87,7.3c1.93,3.19,2.9,6.97,2.9,11.33
		C129.1,59.54,129.02,60.72,128.87,62.98z M101.8,50.33c-1.48,1.26-2.42,2.96-2.82,5.12h16.72c-0.4-2.16-1.34-3.86-2.82-5.12
		c-1.48-1.25-3.33-1.88-5.53-1.88C105.12,48.44,103.28,49.07,101.8,50.33z"/>
	<path class="st4" d="M74.65,57.21c1.71,2.23,2.56,4.93,2.56,8.1c0,4.62-1.86,8.18-5.57,10.69c-3.72,2.51-9.09,3.77-16.11,3.77
		H27.06V27.06h26.96c6.73,0,11.85,1.24,15.36,3.73c3.51,2.49,5.27,5.84,5.27,10.05c0,2.51-0.61,4.76-1.84,6.74
		c-1.23,1.98-2.97,3.55-5.23,4.71C70.58,53.34,72.94,54.98,74.65,57.21z M41.82,37.83v10.17h10.24c5.02,0,7.53-1.71,7.53-5.12
		c0-3.36-2.51-5.04-7.53-5.04H41.82z M62.15,63.65c0-3.56-2.61-5.35-7.83-5.35h-12.5V69h12.5C59.54,69,62.15,67.22,62.15,63.65z"/>
</g>
</svg>
