<?xml version="1.0" encoding="utf-8"?>
<!-- Generator: Adobe Illustrator 23.0.3, SVG Export Plug-In . SVG Version: 6.00 Build 0)  -->
<svg version="1.1" id="Laag_1" xmlns="http://www.w3.org/2000/svg" xmlns:xlink="http://www.w3.org/1999/xlink" x="0px" y="0px"
	 viewBox="0 0 674.44 68.99" style="enable-background:new 0 0 674.44 68.99;" xml:space="preserve">
<style type="text/css">
	.st0{fill:#FFFFFF;}
	.st1{fill:#3FA3A8;}
	.st2{fill:#F4D24A;}
	.st3{fill:#1E3142;}
	.st4{fill:#A1CCC5;}
</style>
<g>
	<g>
		<path class="st4" d="M258.7,34.68c0,4.33-3.51,7.84-7.84,7.84c-4.33,0-7.84-3.51-7.84-7.84s3.51-7.84,7.84-7.84
			C255.19,26.84,258.7,30.35,258.7,34.68"/>
		<path class="st4" d="M123.03,34.68c0,4.33-3.51,7.84-7.84,7.84c-4.33,0-7.84-3.51-7.84-7.84s3.51-7.84,7.84-7.84
			C119.52,26.84,123.03,30.35,123.03,34.68"/>
		<path class="st4" d="M224.78,34.68c0,4.33-3.51,7.84-7.84,7.84c-4.33,0-7.84-3.51-7.84-7.84s3.51-7.84,7.84-7.84
			C221.27,26.84,224.78,30.35,224.78,34.68"/>
		<path class="st4" d="M89.12,34.68c0,4.33-3.51,7.84-7.84,7.84c-4.33,0-7.84-3.51-7.84-7.84s3.51-7.84,7.84-7.84
			C85.61,26.84,89.12,30.35,89.12,34.68"/>
		<path class="st4" d="M55.38,34.31c0,4.33-3.51,7.84-7.84,7.84s-7.84-3.51-7.84-7.84s3.51-7.84,7.84-7.84S55.38,29.98,55.38,34.31"
			/>
		<path class="st4" d="M326.53,34.68c0,4.33-3.51,7.84-7.84,7.84s-7.84-3.51-7.84-7.84s3.51-7.84,7.84-7.84
			S326.53,30.35,326.53,34.68"/>
		<path class="st4" d="M190.87,34.68c0,4.33-3.51,7.84-7.84,7.84c-4.33,0-7.84-3.51-7.84-7.84s3.51-7.84,7.84-7.84
			C187.36,26.84,190.87,30.35,190.87,34.68"/>
		<path class="st4" d="M292.61,34.68c0,4.33-3.51,7.84-7.84,7.84c-4.33,0-7.84-3.51-7.84-7.84s3.51-7.84,7.84-7.84
			C289.1,26.84,292.61,30.35,292.61,34.68"/>
		<path class="st4" d="M156.95,34.68c0,4.33-3.51,7.84-7.84,7.84c-4.33,0-7.84-3.51-7.84-7.84s3.51-7.84,7.84-7.84
			C153.44,26.84,156.95,30.35,156.95,34.68"/>
	</g>
	<g>
		<path class="st4" d="M566.9,34.68c0,4.33-3.51,7.84-7.84,7.84c-4.33,0-7.84-3.51-7.84-7.84s3.51-7.84,7.84-7.84
			C563.4,26.84,566.9,30.35,566.9,34.68"/>
		<path class="st4" d="M431.24,34.68c0,4.33-3.51,7.84-7.84,7.84c-4.33,0-7.84-3.51-7.84-7.84s3.51-7.84,7.84-7.84
			C427.73,26.84,431.24,30.35,431.24,34.68"/>
		<path class="st4" d="M532.99,34.68c0,4.33-3.51,7.84-7.84,7.84c-4.33,0-7.84-3.51-7.84-7.84s3.51-7.84,7.84-7.84
			C529.48,26.84,532.99,30.35,532.99,34.68"/>
		<path class="st4" d="M397.33,34.68c0,4.33-3.51,7.84-7.84,7.84c-4.33,0-7.84-3.51-7.84-7.84s3.51-7.84,7.84-7.84
			C393.82,26.84,397.33,30.35,397.33,34.68"/>
		<path class="st4" d="M363.59,34.31c0,4.33-3.51,7.84-7.84,7.84c-4.33,0-7.84-3.51-7.84-7.84s3.51-7.84,7.84-7.84
			C360.08,26.47,363.59,29.98,363.59,34.31"/>
		<path class="st4" d="M634.74,34.68c0,4.33-3.51,7.84-7.84,7.84c-4.33,0-7.84-3.51-7.84-7.84s3.51-7.84,7.84-7.84
			C631.23,26.84,634.74,30.35,634.74,34.68"/>
		<path class="st4" d="M499.07,34.68c0,4.33-3.51,7.84-7.84,7.84s-7.84-3.51-7.84-7.84s3.51-7.84,7.84-7.84
			S499.07,30.35,499.07,34.68"/>
		<path class="st4" d="M600.82,34.68c0,4.33-3.51,7.84-7.84,7.84c-4.33,0-7.84-3.51-7.84-7.84s3.51-7.84,7.84-7.84
			C597.31,26.84,600.82,30.35,600.82,34.68"/>
		<path class="st4" d="M465.16,34.68c0,4.33-3.51,7.84-7.84,7.84s-7.84-3.51-7.84-7.84s3.51-7.84,7.84-7.84
			S465.16,30.35,465.16,34.68"/>
	</g>
</g>
</svg>
