<?xml version="1.0" encoding="utf-8"?>
<!-- Generator: Adobe Illustrator 23.0.3, SVG Export Plug-In . SVG Version: 6.00 Build 0)  -->
<svg version="1.1" id="Laag_1" xmlns="http://www.w3.org/2000/svg" xmlns:xlink="http://www.w3.org/1999/xlink" x="0px" y="0px"
	 viewBox="0 0 708.66 536.4" style="enable-background:new 0 0 708.66 536.4;" xml:space="preserve">
<style type="text/css">
	.st0{fill:#194052;}
	.st1{fill:#98C6BB;}
	.st2{fill:#F3CC23;}
	.st3{fill:#4CADA9;}
	.st4{fill:#B5B5B3;}
</style>
<g>
	<path class="st0" d="M582.05,340.1h-51.95l-9.65,23.87h-35.46l54.24-122.87h34.23l54.41,122.87H591.7L582.05,340.1z M571.87,314.47
		l-15.8-39.32l-15.8,39.32H571.87z"/>
	<path class="st0" d="M384.64,362.74c-9.36-2.46-16.97-5.73-22.82-9.83l11.41-25.63c5.5,3.62,11.87,6.55,19.13,8.78
		c7.25,2.22,14.39,3.33,21.41,3.33c13.34,0,20.01-3.33,20.01-10.01c0-3.51-1.9-6.11-5.7-7.81c-3.81-1.69-9.92-3.48-18.34-5.35
		c-9.25-1.99-16.97-4.12-23.17-6.4c-6.21-2.28-11.53-5.94-15.97-10.97c-4.45-5.03-6.67-11.82-6.67-20.37
		c0-7.49,2.05-14.25,6.14-20.27c4.09-6.03,10.21-10.8,18.35-14.31c8.13-3.51,18.1-5.27,29.93-5.27c8.07,0,16.03,0.91,23.87,2.72
		c7.83,1.81,14.74,4.48,20.71,7.99l-10.71,25.8c-11.7-6.32-23.06-9.48-34.05-9.48c-6.91,0-11.94,1.03-15.09,3.07
		c-3.16,2.05-4.74,4.71-4.74,7.99c0,3.28,1.87,5.73,5.62,7.37c3.74,1.64,9.77,3.33,18.08,5.09c9.36,1.99,17.11,4.12,23.26,6.4
		c6.14,2.28,11.46,5.91,15.97,10.88c4.5,4.98,6.76,11.73,6.76,20.27c0,7.38-2.05,14.05-6.15,20.01
		c-4.1,5.97-10.24,10.74-18.43,14.31c-8.19,3.57-18.14,5.35-29.84,5.35C403.66,366.43,394.01,365.2,384.64,362.74z"/>
	<path class="st0" d="M448.45,198.76l-0.35-65.12l-31.6,53.01h-15.45l-31.42-51.25v63.37h-32.12V75.89h28.61l43.18,70.91
		l42.12-70.91h28.61l0.35,122.87H448.45z"/>
	<path class="st0" d="M314.55,159.62H245.4c1.4,4.92,4.12,8.69,8.16,11.32c4.03,2.63,9.1,3.95,15.18,3.95
		c4.56,0,8.52-0.64,11.85-1.93c3.34-1.29,6.7-3.39,10.09-6.32l17.55,18.26c-9.25,10.3-22.76,15.45-40.55,15.45
		c-11.12,0-20.89-2.11-29.31-6.32s-14.95-10.06-19.57-17.55s-6.93-15.97-6.93-25.45c0-9.36,2.25-17.76,6.76-25.19
		c4.5-7.43,10.73-13.25,18.69-17.46c7.96-4.21,16.91-6.32,26.86-6.32c9.48,0,18.08,1.96,25.8,5.88c7.72,3.92,13.83,9.6,18.34,17.03
		c4.5,7.43,6.76,16.24,6.76,26.42C315.08,151.61,314.91,154.36,314.55,159.62z M251.45,130.13c-3.45,2.93-5.65,6.9-6.58,11.94h38.97
		c-0.94-5.03-3.13-9.01-6.58-11.94c-3.45-2.92-7.75-4.39-12.9-4.39C259.2,125.74,254.9,127.21,251.45,130.13z"/>
	<path class="st0" d="M188.16,146.19c3.98,5.21,5.97,11.5,5.97,18.87c0,10.77-4.33,19.08-12.99,24.92
		c-8.66,5.85-21.18,8.78-37.56,8.78H77.22V75.89h62.84c15.68,0,27.62,2.9,35.81,8.69c8.19,5.79,12.29,13.6,12.29,23.43
		c0,5.85-1.43,11.09-4.3,15.71c-2.87,4.63-6.93,8.28-12.2,10.97C178.68,137.15,184.18,140.99,188.16,146.19z M111.63,100.99v23.7
		h23.87c11.7,0,17.55-3.98,17.55-11.94c0-7.84-5.85-11.76-17.55-11.76H111.63z M159.02,161.2c0-8.31-6.09-12.46-18.26-12.46h-29.14
		v24.93h29.14C152.93,173.66,159.02,169.51,159.02,161.2z"/>
	<circle class="st1" cx="129.29" cy="297.98" r="31.54"/>
	<circle class="st2" cx="265.75" cy="297.98" r="31.54"/>
	<circle class="st3" cx="557.87" cy="146.34" r="31.54"/>
	<g>
		<path class="st4" d="M340.34,435.31l-9.21,9.46v14.86h-10.79v-58.1h10.79v29.8l28.72-29.8h12.12l-24.4,25.98l25.9,32.12h-12.62
			L340.34,435.31z"/>
		<path class="st4" d="M385.74,457.31c-3.6-1.94-6.41-4.63-8.42-8.09c-2.02-3.46-3.03-7.37-3.03-11.75c0-4.37,1.01-8.27,3.03-11.7
			c2.02-3.43,4.83-6.11,8.42-8.05c3.6-1.94,7.64-2.91,12.12-2.91c4.54,0,8.6,0.97,12.2,2.91c3.6,1.94,6.4,4.62,8.42,8.05
			c2.02,3.43,3.03,7.33,3.03,11.7c0,4.37-1.01,8.29-3.03,11.75c-2.02,3.46-4.83,6.16-8.42,8.09c-3.6,1.94-7.66,2.91-12.2,2.91
			C393.38,460.21,389.34,459.25,385.74,457.31z M407.32,447.51c2.49-2.54,3.73-5.89,3.73-10.04c0-4.15-1.25-7.5-3.73-10.04
			c-2.49-2.54-5.64-3.82-9.46-3.82c-3.82,0-6.96,1.27-9.42,3.82c-2.46,2.55-3.69,5.89-3.69,10.04c0,4.15,1.23,7.5,3.69,10.04
			c2.46,2.55,5.6,3.82,9.42,3.82C401.68,451.33,404.83,450.06,407.32,447.51z"/>
		<path class="st4" d="M457.12,414.81v9.88c-0.89-0.17-1.69-0.25-2.41-0.25c-4.04,0-7.19,1.18-9.46,3.53
			c-2.27,2.35-3.4,5.74-3.4,10.17v21.5h-10.38v-44.32h9.88v6.47C444.34,417.14,449.6,414.81,457.12,414.81z"/>
		<path class="st4" d="M494.22,457.22c-1.22,1-2.7,1.74-4.44,2.24s-3.58,0.75-5.52,0.75c-4.87,0-8.63-1.27-11.29-3.82
			c-2.66-2.54-3.98-6.25-3.98-11.12v-21.33h-7.3v-8.3h7.3v-10.13h10.38v10.13h11.87v8.3h-11.87v21.08c0,2.16,0.53,3.81,1.58,4.94
			c1.05,1.13,2.57,1.7,4.57,1.7c2.32,0,4.26-0.61,5.81-1.83L494.22,457.22z"/>
		<path class="st4" d="M528.42,414.81v9.88c-0.89-0.17-1.69-0.25-2.41-0.25c-4.04,0-7.19,1.18-9.46,3.53
			c-2.27,2.35-3.4,5.74-3.4,10.17v21.5h-10.37v-44.32h9.88v6.47C515.64,417.14,520.89,414.81,528.42,414.81z"/>
		<path class="st4" d="M537.71,406.22c-1.27-1.19-1.91-2.67-1.91-4.44c0-1.77,0.64-3.25,1.91-4.44c1.27-1.19,2.85-1.79,4.73-1.79
			c1.88,0,3.46,0.57,4.73,1.7c1.27,1.13,1.91,2.56,1.91,4.27c0,1.83-0.62,3.36-1.87,4.61s-2.84,1.87-4.77,1.87
			C540.56,408.01,538.99,407.41,537.71,406.22z M537.22,415.31h10.38v44.32h-10.38V415.31z"/>
		<path class="st4" d="M546.68,473.74l2.99-7.72c1.55,1.16,3.57,1.74,6.06,1.74c1.94,0,3.42-0.59,4.44-1.78
			c1.02-1.19,1.54-2.95,1.54-5.27v-45.4h10.38v45.15c0,4.92-1.36,8.8-4.07,11.62c-2.71,2.82-6.5,4.23-11.37,4.23
			C552.27,476.31,548.95,475.46,546.68,473.74z M562.11,406.22c-1.27-1.19-1.91-2.67-1.91-4.44c0-1.77,0.64-3.25,1.91-4.44
			c1.27-1.19,2.85-1.79,4.73-1.79c1.88,0,3.46,0.57,4.73,1.7c1.27,1.13,1.91,2.56,1.91,4.27c0,1.83-0.62,3.36-1.87,4.61
			s-2.84,1.87-4.77,1.87C564.96,408.01,563.39,407.41,562.11,406.22z"/>
		<path class="st4" d="M603.78,440.62l-7.72,7.3v11.7h-10.38v-61.59h10.38v37.18l21.5-19.92h12.45L611.5,433.9l20.25,25.73h-12.62
			L603.78,440.62z"/>
	</g>
</g>
</svg>
